#N canvas 67 23 1369 833 12;
#X obj 499 44 vradio 30 1 0 3 empty empty empty 0 -8 0 10 -262144 -1
-1 0;
#X text 494 21 Music;
#X obj 683 44 vradio 30 1 0 3 empty empty empty 0 -8 0 10 -262144 -1
-1 0;
#X text 679 20 Level;
#X obj 499 155 s music;
#X obj 19 50 r music;
#X floatatom 37 86 5 0 0 0 - - -;
#X obj 31 430 soundfiler;
#X text 716 50 High;
#X text 717 80 Mid;
#X text 717 110 Low;
#N canvas 0 22 450 278 (subpatch) 0;
#X array sample 1.323e+06 float 0;
#X coords 0 1 1.323e+06 -1 200 140 1 0 0;
#X restore 153 28 graph;
#X obj 661 484 vsl 30 128 1e-05 1 1 0 empty empty empty 0 -9 0 10 -262144
-1 -1 0 1;
#X floatatom 676 696 0 0 0 0 - - -;
#X obj 843 494 vradio 30 1 0 2 empty empty empty 0 -8 0 10 -262144
-1 -1 1;
#X text 887 500 Speaker;
#X text 888 531 Headphone;
#X obj 674 749 s volume;
#X floatatom 612 205 5 0 0 0 - - -;
#X obj 611 162 expr 1/pow(2 \, $f1);
#X obj 532 561 *~;
#X obj 37 121 sel 0 1 2;
#X msg 390 93 \; pd dsp 1 \;;
#X obj 390 47 loadbang;
#X text 617 459 Headphone Volume;
#X obj 356 482 tabplay~ sample;
#X obj 303 578 *~;
#X obj 366 546 r level;
#X obj 843 741 s source;
#X msg 428 432 stop;
#X obj 307 717 dac~ 3;
#X msg 33 357 read -resize Lemon.wav sample \;;
#X msg 79 175 read -resize La_Quiero_a_Morir.wav sample \;;
#X msg 49 262 read -resize Sad_But_True.wav sample \;;
#X obj 358 372 bng 15 250 50 0 empty empty empty 17 7 0 10 -262144
-1 -1;
#X obj 357 431 del 1000;
#X text 539 54 Lemon;
#X text 537 113 La Quiero a Morir;
#X text 537 83 Sad But Ture;
#X obj 931 598 bng 30 250 50 0 empty empty empty 17 7 0 10 -262144
-1 -1;
#X obj 934 668 s next;
#X obj 995 599 bng 30 250 50 0 empty empty empty 17 7 0 10 -262144
-1 -1;
#X obj 1168 274 qlist;
#X msg 1190 132 next;
#X msg 1203 162 rewind;
#X msg 1215 194 print;
#X floatatom 1168 314 5 0 0 0 - - -;
#X obj 1166 51 loadbang;
#X msg 1087 169 clear;
#X obj 1149 745 textfile;
#X msg 1230 693 print;
#X msg 1061 655 clear;
#X obj 1118 489 r next;
#X obj 1196 487 r volume;
#X floatatom 1140 572 5 0 0 0 - - -;
#X obj 1141 533 f;
#X msg 1141 622 add \$1;
#X obj 1232 551 r save;
#X obj 997 669 s save;
#X obj 365 581 expr 1/pow(2 \, $f1);
#X floatatom 365 612 5 0 0 0 - - -;
#X obj 1299 97 r next;
#X obj 624 413 bng 30 250 50 0 empty empty empty 0 0 0 20 -262144 -1
-1;
#X text 622 387 Play;
#X text 929 578 Next;
#X text 993 578 Save;
#X obj 521 343 r next;
#X obj 1293 62 r start;
#X obj 996 526 bng 30 250 50 0 empty empty empty 17 7 0 10 -262144
-1 -1;
#X obj 1058 518 s start;
#X text 991 503 Start;
#X obj 723 393 cnv 15 100 60 empty cnv Lemon 20 30 0 20 -233017 -66577
0;
#X msg 55 386 \; cnv label Lemon;
#X msg 97 203 \; cnv label La_Quiero_a_Morir;
#X msg 56 289 \; cnv label Sad_But_True;
#X text 723 373 Music;
#X obj 793 102 list trim;
#X floatatom 793 183 5 0 0 0 - - -;
#X floatatom 841 185 5 0 0 0 - - -;
#X floatatom 888 185 0 0 0 0 - - -;
#X floatatom 937 180 5 0 0 0 - - -;
#X floatatom 993 185 5 0 0 0 - - -;
#X floatatom 1041 184 5 0 0 0 - - -;
#X obj 675 414 bng 30 250 50 0 empty empty empty 17 7 0 10 -262144
-1 -1;
#X obj 439 656 r source;
#X floatatom 427 743 5 0 0 0 - - -;
#X floatatom 597 741 5 0 0 0 - - -;
#X obj 441 691 expr if($f1==0 \, 1 \, 0) \; if($f1==0 \, 0 \, 1);
#X obj 304 627 *~;
#X obj 530 605 *~;
#X obj 793 63 oscparse;
#X obj 794 27 netreceive -u -b 54321;
#X obj 793 136 route Start Play Slider Next myToggle Save;
#X obj 571 280 route Stop;
#X obj 936 217 sel 1;
#X obj 791 221 sel 1;
#X obj 533 652 dac~ 1 2 4;
#X obj 306 680 *~ 0.25;
#X obj 661 630 expr if($f1<=1e-05 \, 0 \, $f1);
#X obj 708 655 expr log10($f1+1)/log10(2);
#X obj 1141 418 s toGUI;
#X msg 1141 394 list /Count \$1;
#X msg 1166 102 read test01.txt;
#X msg 1233 624 write result01_with.txt cr;
#X connect 0 0 4 0;
#X connect 2 0 19 0;
#X connect 5 0 6 0;
#X connect 6 0 21 0;
#X connect 12 0 98 0;
#X connect 13 0 20 1;
#X connect 13 0 17 0;
#X connect 14 0 28 0;
#X connect 19 0 18 0;
#X connect 20 0 89 0;
#X connect 21 0 31 0;
#X connect 21 1 33 0;
#X connect 21 2 32 0;
#X connect 23 0 22 0;
#X connect 25 0 26 0;
#X connect 25 0 20 0;
#X connect 25 1 34 0;
#X connect 26 0 88 0;
#X connect 27 0 59 0;
#X connect 29 0 25 0;
#X connect 31 0 7 0;
#X connect 31 0 72 0;
#X connect 32 0 7 0;
#X connect 32 0 73 0;
#X connect 33 0 7 0;
#X connect 33 0 74 0;
#X connect 34 0 35 0;
#X connect 35 0 25 0;
#X connect 39 0 40 0;
#X connect 41 0 58 0;
#X connect 42 0 46 0;
#X connect 43 0 42 0;
#X connect 44 0 42 0;
#X connect 45 0 42 0;
#X connect 46 0 101 0;
#X connect 47 0 102 0;
#X connect 47 0 44 0;
#X connect 48 0 42 0;
#X connect 50 0 49 0;
#X connect 51 0 49 0;
#X connect 52 0 55 0;
#X connect 53 0 55 1;
#X connect 54 0 56 0;
#X connect 55 0 54 0;
#X connect 56 0 49 0;
#X connect 57 0 103 0;
#X connect 59 0 60 0;
#X connect 60 0 26 1;
#X connect 61 0 43 0;
#X connect 62 0 25 0;
#X connect 66 0 62 0;
#X connect 67 0 43 0;
#X connect 68 0 69 0;
#X connect 68 0 14 0;
#X connect 76 0 92 0;
#X connect 76 0 93 0;
#X connect 77 0 95 0;
#X connect 80 0 94 0;
#X connect 81 0 14 0;
#X connect 83 0 29 0;
#X connect 84 0 87 0;
#X connect 87 0 85 0;
#X connect 87 0 88 1;
#X connect 87 1 86 0;
#X connect 87 1 89 1;
#X connect 88 0 97 0;
#X connect 89 0 96 0;
#X connect 89 0 96 1;
#X connect 89 0 96 2;
#X connect 90 0 76 0;
#X connect 91 0 90 0;
#X connect 92 0 77 0;
#X connect 92 1 62 0;
#X connect 92 1 78 0;
#X connect 92 2 79 0;
#X connect 92 2 99 0;
#X connect 92 3 80 0;
#X connect 92 4 81 0;
#X connect 92 5 41 0;
#X connect 92 5 82 0;
#X connect 93 0 83 0;
#X connect 94 0 39 0;
#X connect 95 0 68 0;
#X connect 97 0 30 0;
#X connect 98 0 13 0;
#X connect 99 0 13 0;
#X connect 101 0 100 0;
#X connect 102 0 42 0;
#X connect 103 0 49 0;
#X coords 0 -1 1 1 450 300 1 600 350;
