#N canvas 71 23 1369 833 12;
#X obj 90 32 r fromGUI;
#X obj 90 80 list trim;
#X floatatom 89 155 5 0 0 0 - - -;
#X floatatom 143 157 5 0 0 0 - - -;
#X floatatom 200 158 5 0 0 0 - - -;
#X floatatom 265 159 5 0 0 0 - - -;
#X floatatom 313 159 5 0 0 0 - - -;
#X floatatom 374 158 5 0 0 0 - - -;
#X msg 35 401 list /Start \$1;
#X msg 101 441 list /Play \$1;
#X msg 180 398 list /Slider \$1;
#X msg 242 441 list /Next \$1;
#X msg 328 400 list /myToggle \$1;
#X msg 382 438 list /Save \$1;
#X obj 201 507 send toNetwork;
#X msg 490 408 list /Stop \$1;
#X obj 90 114 route /Start /Play /Slider /Next /myToggle /Save /Stop
;
#X floatatom 436 158 5 0 0 0 - - -;
#X obj 502 528 sel 1;
#X msg 461 568 1;
#X obj 461 602 +;
#X obj 358 552 sel 1;
#X msg 358 585 0;
#X floatatom 526 585 5 0 0 0 - - -;
#X obj 619 708 s toGUI;
#X msg 619 663 list /Slider 0;
#X msg 642 548 list /myToggle 0;
#X obj 642 584 s toGUI;
#X obj 526 625 sel 27;
#X obj 412 777 s toSystem;
#X obj 24 520 sel 1;
#X msg 555 751 list /Stop 1;
#X obj 555 775 s toNetwork;
#X obj 153 207 expr if($f1==0 \, 0 \, 1);
#X floatatom 296 298 5 0 0 0 - - -;
#X obj 297 261 * 1;
#X msg 416 751 list /setPage 3;
#X msg 313 699 list /Count \$1;
#X obj 313 723 s toGUI;
#X obj 361 650 + 1;
#X obj 606 89 loadbang;
#X msg 606 113 0;
#X connect 0 0 1 0;
#X connect 1 0 16 0;
#X connect 2 0 8 0;
#X connect 2 0 21 0;
#X connect 2 0 30 0;
#X connect 3 0 9 0;
#X connect 4 0 10 0;
#X connect 4 0 33 0;
#X connect 5 0 35 0;
#X connect 6 0 12 0;
#X connect 7 0 13 0;
#X connect 8 0 14 0;
#X connect 9 0 14 0;
#X connect 10 0 14 0;
#X connect 11 0 14 0;
#X connect 12 0 14 0;
#X connect 13 0 14 0;
#X connect 15 0 14 0;
#X connect 16 0 2 0;
#X connect 16 1 3 0;
#X connect 16 2 4 0;
#X connect 16 3 5 0;
#X connect 16 4 6 0;
#X connect 16 5 7 0;
#X connect 16 6 17 0;
#X connect 17 0 15 0;
#X connect 18 0 19 0;
#X connect 18 0 25 0;
#X connect 18 0 26 0;
#X connect 19 0 20 0;
#X connect 20 0 23 0;
#X connect 21 0 22 0;
#X connect 22 0 23 0;
#X connect 23 0 20 1;
#X connect 23 0 28 0;
#X connect 23 0 39 0;
#X connect 25 0 24 0;
#X connect 26 0 27 0;
#X connect 28 0 36 0;
#X connect 28 0 31 0;
#X connect 30 0 31 0;
#X connect 31 0 32 0;
#X connect 33 0 35 1;
#X connect 34 0 11 0;
#X connect 34 0 18 0;
#X connect 35 0 34 0;
#X connect 36 0 29 0;
#X connect 37 0 38 0;
#X connect 39 0 37 0;
#X connect 40 0 41 0;
#X connect 41 0 4 0;
#X coords 0 833 1 832 450 300 0;
